<?xml version="1.0" encoding="UTF-8"?>
<svg id="Layer_1" data-name="Layer 1" xmlns="http://www.w3.org/2000/svg" version="1.1" viewBox="0 0 75 75">
  <defs>
    <style>
      .cls-1, .cls-2 {
        stroke-linecap: round;
        stroke-linejoin: round;
        stroke-width: 1.7px;
      }

      .cls-1, .cls-2, .cls-3 {
        stroke: #fff;
      }

      .cls-1, .cls-4 {
        fill: #fff;
      }

      .cls-2, .cls-3 {
        fill: none;
      }

      .cls-3 {
        stroke-miterlimit: 10;
        stroke-width: 1.1px;
      }

      .cls-4 {
        stroke-width: 0px;
      }
    </style>
  </defs>
  <rect class="cls-3" x="38.1" y="65" width="10.3" height="2.9" transform="translate(-27.4 30.5) rotate(-30)"/>
  <g>
    <path class="cls-3" d="M20.5,22.3c-1.6.9-3-.3-3-.3,0,0,0,0,0,0,0,.3.2,1.9-1.2,2.7-1.6.9-3.2-.2-3.2-.2l-2.3-10.1-.7-3.2c-.3-1.1,1.1-1.9,1.9-1.1l2.4,2.3,7.6,7s.1,2-1.5,2.9Z"/>
    <path class="cls-4" d="M12.8,13.7c.6-.4,1.2-.8,1.7-1.3l-2.4-2.3c-.8-.8-2.2,0-1.9,1.1l.7,3.3c.7-.2,1.3-.4,2-.8Z"/>
    <path class="cls-2" d="M12.8,13.7c.6-.4,1.2-.8,1.7-1.3l-2.4-2.3c-.8-.8-2.2,0-1.9,1.1l.7,3.3c.7-.2,1.3-.4,2-.8Z"/>
    <path class="cls-2" d="M20.5,22.3c-1.6.9-3-.3-3-.3,0,0,0,0,0,0,0,.3.2,1.9-1.2,2.7-1.6.9-3.2-.2-3.2-.2l-2.3-10.1-.7-3.2c-.3-1.1,1.1-1.9,1.9-1.1l2.4,2.3,7.6,7s.1,2-1.5,2.9Z"/>
  </g>
  <g>
    <path class="cls-3" d="M38.8,69l2.3,4c.7,1.2,2.2,1.6,3.3.9l4.7-2.7c1.2-.7,1.6-2.2.9-3.3l-2.3-4-8.9,5.1Z"/>
    <path class="cls-2" d="M38.8,69l2.3,4c.7,1.2,2.2,1.6,3.3.9l4.7-2.7c1.2-.7,1.6-2.2.9-3.3l-2.3-4-8.9,5.1Z"/>
  </g>
  <path class="cls-2" d="M41.4,53c-.1.2-.2.3-.3.5.1-.1.2-.3.3-.4,0,0,0,0,0,0Z"/>
  <rect class="cls-2" x="38.1" y="65" width="10.3" height="2.9" transform="translate(-27.4 30.5) rotate(-30)"/>
  <g>
    <g>
      <path class="cls-1" d="M30.5,67.4c-.4.5-.9,1-1.3,1.5.4-.5.8-.9,1.3-1.5Z"/>
      <path class="cls-1" d="M41.4,53c-.1.2-.2.3-.3.5.1-.1.2-.3.3-.4,0,0,0,0,0,0Z"/>
      <path class="cls-1" d="M57,26.3c-.1.3-.2.5-.4.8s-.3.6-.4.8c-.1.3-.3.6-.4.9-.2.4-.4.8-.6,1.2h0c-.5,1.1-1.1,2.2-1.7,3.3,0,0-1.4.2-3.4-1.2-2.1-1.4-2.5-2.7-2.5-2.7.3-.4.6-.8.9-1.2.4-.5.8-1,1.2-1.4.1-.1.2-.3.4-.4h0c0-.1.2-.2.3-.3.8-1,1.6-1.9,2.4-2.7h0s.9.6.9.6l1.2.8h.2c0,.1,2,1.4,2,1.4Z"/>
      <path class="cls-1" d="M49.9,26.5s.3.8,2.4,2.1c2.1,1.4,2.8,1.5,2.8,1.5"/>
      <path class="cls-1" d="M57,26.3c-.1.3-.2.5-.4.8s-.3.6-.4.8c-.1.3-.3.6-.4.9-.2.4-.4.8-.6,1.2h0c-.5,1.1-1.1,2.2-1.7,3.3,0,0-1.4.2-3.4-1.2-2.1-1.4-2.5-2.7-2.5-2.7.3-.4.6-.8.9-1.2.4-.5.8-1,1.2-1.4.1-.1.2-.3.4-.4h0c0-.1.2-.2.3-.3.8-1,1.6-1.9,2.4-2.7h0s.9.6.9.6l1.2.8h.2c0,.1,2,1.4,2,1.4Z"/>
    </g>
    <g>
      <path class="cls-3" d="M52.6,23.5c-1.5-6.1,2.5-9.2,6.7-10.2s4.9-2.6,4.9-2.6c0,0,2.5,12.9-7.2,15.7l-3.4.4-1-3.3Z"/>
      <path class="cls-4" d="M55,25.1l-1.4,1.7,3.3-.4c9.7-2.8,7.2-15.7,7.2-15.7,0,0-1.8,9.7-9.1,14.5Z"/>
      <path class="cls-2" d="M58,17.2s-4.2,2.2-4.5,6.9"/>
      <path class="cls-2" d="M64.1,10.6s-1.8,9.7-9.1,14.5"/>
      <path class="cls-2" d="M52.6,23.5c-1.5-6.1,2.4-9.2,6.7-10.3,4.2-1.1,4.9-2.7,4.9-2.7,0,0,2.6,12.9-7.1,15.8l-3.4.4-1-3.3Z"/>
    </g>
  </g>
  <path class="cls-3" d="M38.5,20.9s-.6-4.2,3-5l-3.4-11.1s1.8-1.7.3-3.2c-1.1-1.1-2.8.5-2.8.5,0,0-1.7-1.6-2.8-.5-1.5,1.4.3,3.2.3,3.2l-3.4,11.1c3.6.8,3,5,3,5h2.8s2.8,0,2.8,0Z"/>
  <circle class="cls-2" cx="35.6" cy="15.1" r="1.7"/>
  <line class="cls-2" x1="35.6" y1="2.2" x2="35.6" y2="13.4"/>
  <path class="cls-3" d="M38.5,20.9h-5.6c-5.2,33.5-3.2,53.6,2.8,53.6s8-20.1,2.8-53.6Z"/>
  <path class="cls-2" d="M29.9,55.9s0,0,0,0c0-.8,0-1.6,0-2.4"/>
  <path class="cls-2" d="M41.4,53h0c0,0,5.5,9.6,5.5,9.6l-3.6,4.1-2.9.6c-1,4.8-2.6,7.3-4.7,7.3s-3.8-2.6-4.8-7.5c-.1.1-.2.3-.3.4-.4.5-.9,1-1.3,1.5-.3.3-.5.5-.7.8-.2.2-.3.3-.5.5-.3.3-.5.5-.7.7-.1.1-.2.2-.4.3-.2.2-.4.4-.7.6-.1,0-.2.2-.3.3-.1,0-.2.2-.3.3-.3.2-.6.4-.8.6-.3.2-.5.3-.7.4,0,0-.1,0-.2,0,0,0-.2,0-.2,0s-.1,0-.2,0c-.2,0-.3,0-.4-.1-.3-.2-.4-.5-.4-1.1s0-.2,0-.4c0-.1,0-.3,0-.4,0-.1,0-.3,0-.4,0-.2,0-.3.1-.5.3-1.1.8-2.4,1.4-4,.2-.4.4-.8.6-1.3.4-.8.8-1.6,1.2-2.5.1-.3.3-.6.4-.9.2-.4.4-.7.6-1.1.4-.8.9-1.6,1.3-2.4,0,0,0-.1,0-.2.4-.7.7-1.3,1.1-2,0-.1.1-.2.2-.4h0s0,0,0,0"/>
  <path class="cls-2" d="M29.8,53.5l-2.8-4.9h0s-13.9-24.1-13.9-24.1c0,0,1.6,1.1,3.2.2,1.5-.8,1.3-2.4,1.2-2.7,0,0,0,0,0,0,0,0,1.4,1.2,3,.3,1.6-.9,1.5-2.9,1.5-2.9h0s7.5,13.1,7.5,13.1l1.4,2.4c.5-4.4,1.1-9.1,1.8-14h5.6c1,6.5,1.7,12.4,2.2,17.9,0,0,0,0,0-.1.2-.2.3-.5.5-.7.4-.5.7-1,1.1-1.5,0-.1.2-.3.3-.4.7-1,1.4-1.9,2.1-2.8,1-1.3,1.9-2.5,2.8-3.7,0,0,.4,1.3,2.5,2.7,2.1,1.4,3.4,1.2,3.4,1.2-.3.6-.6,1.2-1,1.8-.2.3-.3.6-.5.9s-.4.6-.5,1c-.6,1-1.2,2-1.8,3.1-.3.5-.5.9-.8,1.4,0,.1-.2.3-.2.4-.4.6-.7,1.2-1.1,1.8-.9,1.4-1.7,2.7-2.6,4.1,0,.1-.1.2-.2.3h0s-.4.6-.4.6c-.2.3-.5.7-.7,1.1-.2.3-.3.5-.5.8,0,0,0,0,0,.1-.5.7-1,1.4-1.5,2.1h0s0,0,0,0h0"/>
  <path class="cls-2" d="M41.4,53s0,0,0,0"/>
  <path class="cls-2" d="M41.4,53h0s0,0,0,0"/>
  <path class="cls-4" d="M32,71c.9,2.4,2.2,3.6,3.7,3.6,2.8,0,4.7-4.3,5.5-12.3-1.3,3.1-3.9,6.9-9.1,8.7Z"/>
  <path class="cls-2" d="M38.5,20.9s-.6-4.2,3-5l-3.4-11.1s1.8-1.7.3-3.2c-1.1-1.1-2.8.5-2.8.5,0,0-1.7-1.6-2.8-.5-1.5,1.4.3,3.2.3,3.2l-3.4,11.1c3.6.8,3,5,3,5h2.8s2.8,0,2.8,0Z"/>
  <path class="cls-2" d="M9.1,24.1c-2,4-3.2,8.5-3.2,13.3,0,11.2,6.2,20.9,15.3,26"/>
  <path class="cls-2" d="M29.3,8.4c-3.3.7-6.4,2-9.3,3.7"/>
  <path class="cls-2" d="M53,13.3c-3-2.2-6.5-3.8-10.3-4.7"/>
  <path class="cls-2" d="M52,62.2c8-5.3,13.3-14.4,13.3-24.8s-.6-7-1.8-10.2"/>
  <line class="cls-2" x1="4.5" y1="16.8" x2="7.7" y2="17.2"/>
  <line class="cls-2" x1="18.6" y1="5.2" x2="16.5" y2="7.7"/>
  <line class="cls-2" x1="59.1" y1="6.1" x2="60" y2="9.3"/>
  <line class="cls-2" x1="67.3" y1="20.8" x2="70.5" y2="20.5"/>
  <line class="cls-2" x1="67.3" y1="4.6" x2="66" y2="7.6"/>
  <line class="cls-2" x1="13.5" y1="3.2" x2="13.7" y2="6.5"/>
</svg>